<svg id="visual" viewBox="0 0 450 900" width="450" height="900" xmlns="http://www.w3.org/2000/svg" xmlns:xlink="http://www.w3.org/1999/xlink" version="1.1"><rect x="0" y="0" width="450" height="900" fill="#001220"></rect><path d="M0 662L12.5 647.7C25 633.3 50 604.7 75 593C100 581.3 125 586.7 150 585.7C175 584.7 200 577.3 225 579.2C250 581 275 592 300 602C325 612 350 621 375 615C400 609 425 588 437.5 577.5L450 567L450 901L437.5 901C425 901 400 901 375 901C350 901 325 901 300 901C275 901 250 901 225 901C200 901 175 901 150 901C125 901 100 901 75 901C50 901 25 901 12.5 901L0 901Z" fill="#fa7268"></path><path d="M0 689L12.5 690.7C25 692.3 50 695.7 75 700.5C100 705.3 125 711.7 150 708.8C175 706 200 694 225 683.2C250 672.3 275 662.7 300 668.3C325 674 350 695 375 702C400 709 425 702 437.5 698.5L450 695L450 901L437.5 901C425 901 400 901 375 901C350 901 325 901 300 901C275 901 250 901 225 901C200 901 175 901 150 901C125 901 100 901 75 901C50 901 25 901 12.5 901L0 901Z" fill="#eb5967"></path><path d="M0 755L12.5 760.5C25 766 50 777 75 768.2C100 759.3 125 730.7 150 728.7C175 726.7 200 751.3 225 753.5C250 755.7 275 735.3 300 723.8C325 712.3 350 709.7 375 721C400 732.3 425 757.7 437.5 770.3L450 783L450 901L437.5 901C425 901 400 901 375 901C350 901 325 901 300 901C275 901 250 901 225 901C200 901 175 901 150 901C125 901 100 901 75 901C50 901 25 901 12.5 901L0 901Z" fill="#da3f67"></path><path d="M0 830L12.5 833.2C25 836.3 50 842.7 75 834C100 825.3 125 801.7 150 800.5C175 799.3 200 820.7 225 825.7C250 830.7 275 819.3 300 815.2C325 811 350 814 375 812C400 810 425 803 437.5 799.5L450 796L450 901L437.5 901C425 901 400 901 375 901C350 901 325 901 300 901C275 901 250 901 225 901C200 901 175 901 150 901C125 901 100 901 75 901C50 901 25 901 12.5 901L0 901Z" fill="#c62368"></path></svg>