<svg id="visual" viewBox="0 0 1920 1080" width="1920" height="1080" xmlns="http://www.w3.org/2000/svg" xmlns:xlink="http://www.w3.org/1999/xlink" version="1.1"><rect x="0" y="0" width="1920" height="1080" fill="#001220"></rect><path d="M0 797L45.7 789.7C91.3 782.3 182.7 767.7 274.2 750.3C365.7 733 457.3 713 548.8 698C640.3 683 731.7 673 823 682C914.3 691 1005.7 719 1097 729.3C1188.3 739.7 1279.7 732.3 1371.2 716.8C1462.7 701.3 1554.3 677.7 1645.8 680.2C1737.3 682.7 1828.7 711.3 1874.3 725.7L1920 740L1920 1081L1874.3 1081C1828.7 1081 1737.3 1081 1645.8 1081C1554.3 1081 1462.7 1081 1371.2 1081C1279.7 1081 1188.3 1081 1097 1081C1005.7 1081 914.3 1081 823 1081C731.7 1081 640.3 1081 548.8 1081C457.3 1081 365.7 1081 274.2 1081C182.7 1081 91.3 1081 45.7 1081L0 1081Z" fill="#fa7268"></path><path d="M0 803L45.7 801.8C91.3 800.7 182.7 798.3 274.2 799.8C365.7 801.3 457.3 806.7 548.8 812.2C640.3 817.7 731.7 823.3 823 809C914.3 794.7 1005.7 760.3 1097 760.7C1188.3 761 1279.7 796 1371.2 810.3C1462.7 824.7 1554.3 818.3 1645.8 805.7C1737.3 793 1828.7 774 1874.3 764.5L1920 755L1920 1081L1874.3 1081C1828.7 1081 1737.3 1081 1645.8 1081C1554.3 1081 1462.7 1081 1371.2 1081C1279.7 1081 1188.3 1081 1097 1081C1005.7 1081 914.3 1081 823 1081C731.7 1081 640.3 1081 548.8 1081C457.3 1081 365.7 1081 274.2 1081C182.7 1081 91.3 1081 45.7 1081L0 1081Z" fill="#ef5f67"></path><path d="M0 842L45.7 835C91.3 828 182.7 814 274.2 825C365.7 836 457.3 872 548.8 875.7C640.3 879.3 731.7 850.7 823 840.7C914.3 830.7 1005.7 839.3 1097 840.8C1188.3 842.3 1279.7 836.7 1371.2 838.8C1462.7 841 1554.3 851 1645.8 850.2C1737.3 849.3 1828.7 837.7 1874.3 831.8L1920 826L1920 1081L1874.3 1081C1828.7 1081 1737.3 1081 1645.8 1081C1554.3 1081 1462.7 1081 1371.2 1081C1279.7 1081 1188.3 1081 1097 1081C1005.7 1081 914.3 1081 823 1081C731.7 1081 640.3 1081 548.8 1081C457.3 1081 365.7 1081 274.2 1081C182.7 1081 91.3 1081 45.7 1081L0 1081Z" fill="#e34c67"></path><path d="M0 895L45.7 892.3C91.3 889.7 182.7 884.3 274.2 883.2C365.7 882 457.3 885 548.8 890.8C640.3 896.7 731.7 905.3 823 908C914.3 910.7 1005.7 907.3 1097 911.3C1188.3 915.3 1279.7 926.7 1371.2 920.8C1462.7 915 1554.3 892 1645.8 881.3C1737.3 870.7 1828.7 872.3 1874.3 873.2L1920 874L1920 1081L1874.3 1081C1828.7 1081 1737.3 1081 1645.8 1081C1554.3 1081 1462.7 1081 1371.2 1081C1279.7 1081 1188.3 1081 1097 1081C1005.7 1081 914.3 1081 823 1081C731.7 1081 640.3 1081 548.8 1081C457.3 1081 365.7 1081 274.2 1081C182.7 1081 91.3 1081 45.7 1081L0 1081Z" fill="#d53867"></path><path d="M0 996L45.7 989C91.3 982 182.7 968 274.2 968.5C365.7 969 457.3 984 548.8 992.5C640.3 1001 731.7 1003 823 1008C914.3 1013 1005.7 1021 1097 1011.7C1188.3 1002.3 1279.7 975.7 1371.2 975.8C1462.7 976 1554.3 1003 1645.8 1016.3C1737.3 1029.7 1828.7 1029.3 1874.3 1029.2L1920 1029L1920 1081L1874.3 1081C1828.7 1081 1737.3 1081 1645.8 1081C1554.3 1081 1462.7 1081 1371.2 1081C1279.7 1081 1188.3 1081 1097 1081C1005.7 1081 914.3 1081 823 1081C731.7 1081 640.3 1081 548.8 1081C457.3 1081 365.7 1081 274.2 1081C182.7 1081 91.3 1081 45.7 1081L0 1081Z" fill="#c62368"></path></svg>