<svg id="visual" viewBox="0 0 900 600" width="900" height="600" xmlns="http://www.w3.org/2000/svg" xmlns:xlink="http://www.w3.org/1999/xlink" version="1.1"><rect x="0" y="0" width="900" height="600" fill="#4FACF7"></rect><path d="M0 449L82 430L164 412L245 454L327 468L409 401L491 462L573 446L655 423L736 417L818 454L900 439L900 601L818 601L736 601L655 601L573 601L491 601L409 601L327 601L245 601L164 601L82 601L0 601Z" fill="#0066ff"></path><path d="M0 475L82 426L164 436L245 473L327 471L409 436L491 480L573 419L655 432L736 484L818 422L900 440L900 601L818 601L736 601L655 601L573 601L491 601L409 601L327 601L245 601L164 601L82 601L0 601Z" fill="#0077f8"></path><path d="M0 457L82 482L164 487L245 498L327 452L409 501L491 474L573 463L655 467L736 486L818 501L900 478L900 601L818 601L736 601L655 601L573 601L491 601L409 601L327 601L245 601L164 601L82 601L0 601Z" fill="#0083eb"></path><path d="M0 494L82 518L164 498L245 506L327 485L409 494L491 513L573 511L655 510L736 479L818 482L900 470L900 601L818 601L736 601L655 601L573 601L491 601L409 601L327 601L245 601L164 601L82 601L0 601Z" fill="#008cda"></path><path d="M0 533L82 493L164 496L245 525L327 499L409 512L491 518L573 518L655 510L736 511L818 526L900 491L900 601L818 601L736 601L655 601L573 601L491 601L409 601L327 601L245 601L164 601L82 601L0 601Z" fill="#0093cb"></path><path d="M0 532L82 523L164 541L245 533L327 540L409 548L491 518L573 524L655 544L736 534L818 534L900 544L900 601L818 601L736 601L655 601L573 601L491 601L409 601L327 601L245 601L164 601L82 601L0 601Z" fill="#0096b4"></path><path d="M0 553L82 545L164 547L245 556L327 546L409 566L491 551L573 556L655 559L736 548L818 567L900 543L900 601L818 601L736 601L655 601L573 601L491 601L409 601L327 601L245 601L164 601L82 601L0 601Z" fill="#009795"></path><path d="M0 585L82 572L164 585L245 564L327 564L409 564L491 578L573 564L655 564L736 568L818 560L900 583L900 601L818 601L736 601L655 601L573 601L491 601L409 601L327 601L245 601L164 601L82 601L0 601Z" fill="#009473"></path></svg>